<?xml version="1.0" encoding="utf-8"?>
<!-- Generator: Adobe Illustrator 19.2.0, SVG Export Plug-In . SVG Version: 6.00 Build 0)  -->
<!DOCTYPE svg PUBLIC "-//W3C//DTD SVG 1.1//EN" "http://www.w3.org/Graphics/SVG/1.1/DTD/svg11.dtd">
<svg version="1.1" id="hoofs" xmlns="http://www.w3.org/2000/svg" xmlns:xlink="http://www.w3.org/1999/xlink" x="0px" y="0px"
	 viewBox="0 0 723 489" style="enable-background:new 0 0 723 489;" xml:space="preserve">
<style type="text/css">
	.st0{fill:none;enable-background:new    ;}
	.st1{fill:#E1C9A3;}
</style>
<path class="st0" d="z"/>
<path class="st0" d="z"/>
<path class="st0" d="z"/>
<path class="st0" d="z"/>
<path class="st0" d="z"/>
<path class="st0" d="z"/>
<path class="st0" d="z"/>
<path class="st0" d="z"/>
<path class="st0" d="z"/>
<path class="st0" d="z"/>
<path class="st0" d="z"/>
<path class="st0" d="z"/>
<path class="st0" d="z"/>
<path class="st0" d="z"/>
<path class="st0" d="z"/>
<path class="st0" d="z"/>
<path class="st0" d="z"/>
<path class="st0" d="z"/>
<path class="st0" d="z"/>
<g>
	<path class="st1" d="M21.4,458.9c0,0,0.6,7.8-5.3,16.3c0,0-6.1,9,0.5,12.6c0,0,4,1.8,8.3-5.9c0,0,2.4-4.3,1-14.1
		C25.9,467.8,24.8,459.4,21.4,458.9z"/>
	<path class="st1" d="M15,457.1c0,0-4.6,6.7-3.5,16.8c0,0,0.8,10.8-6.7,10.7c0,0-4.4-0.4-4.3-9.2c0,0,0.1-4.9,6.2-12.8
		C6.7,462.6,11.9,455.9,15,457.1z"/>
</g>
<g>
	<path class="st1" d="M49.9,416.8c0,0-3.8,6.9-13.5,10.6c0,0-10,4.1-6.5,10.8c0,0,2.4,3.7,10.2-0.3c0,0,4.4-2.3,8.7-11.2
		C48.7,426.7,52.4,419.1,49.9,416.8z"/>
	<path class="st1" d="M45.5,411.9c0,0-7.5,3-12.2,12c0,0-5.3,9.4-11.5,5.2c0,0-3.4-2.8,1.6-10c0,0,2.8-4.1,12.2-7.2
		C35.5,411.8,43.5,409.1,45.5,411.9z"/>
</g>
<g>
	<path class="st1" d="M97.1,386.8c0,0-1.9,7.6-10.2,13.8c0,0-8.6,6.6-3.5,12.1c0,0,3.2,3,9.7-2.9c0,0,3.6-3.3,5.5-13.1
		C98.6,396.7,100.2,388.3,97.1,386.8z"/>
	<path class="st1" d="M91.6,383.1c0,0-6.4,4.9-8.7,14.8c0,0-2.7,10.5-9.8,8c0,0-4-1.8-1.1-10.1c0,0,1.6-4.7,9.9-10.1
		C82,385.7,89,381,91.6,383.1z"/>
</g>
<g>
	<path class="st1" d="M145.5,367.6c0,0-6.8,3.9-17,2.2c0,0-10.7-1.7-11.2,5.8c0,0,0.1,4.4,8.9,5c0,0,4.9,0.3,13.2-5.1
		C139.4,375.4,146.5,370.8,145.5,367.6z"/>
	<path class="st1" d="M144.3,361c0,0-8-1.3-16.7,4c0,0-9.4,5.3-12.5-1.5c0,0-1.5-4.2,6.5-7.8c0,0,4.5-2,14.2,0.1
		C135.8,355.8,144.1,357.6,144.3,361z"/>
</g>
<g>
	<path class="st1" d="M182,317.5c0,0-0.7,7.8-8.1,15.1c0,0-7.6,7.8-1.7,12.5c0,0,3.7,2.5,9.2-4.3c0,0,3.1-3.8,3.5-13.7
		C184.9,327.1,185.2,318.6,182,317.5z"/>
	<path class="st1" d="M176,314.7c0,0-5.7,5.8-6.4,15.9c0,0-1.1,10.8-8.5,9.3c0,0-4.3-1.2-2.6-9.8c0,0,0.9-4.8,8.3-11.5
		C166.8,318.7,173.1,313,176,314.7z"/>
</g>
<g>
	<path class="st1" d="M225.5,292c0,0-6.7,4.1-17,2.6c0,0-10.7-1.4-11,6.1c0,0,0.2,4.4,9,4.8c0,0,4.9,0.2,13.1-5.5
		C219.6,300,226.6,295.2,225.5,292z"/>
	<path class="st1" d="M224.2,285.5c0,0-8-1.1-16.6,4.4c0,0-9.3,5.6-12.5-1.2c0,0-1.6-4.1,6.3-8c0,0,4.4-2.2,14.2-0.2
		C215.5,280.5,223.8,282.1,224.2,285.5z"/>
</g>
<g>
	<path class="st1" d="M238.9,228c0,0,2.4,7.5-1.5,17.1c0,0-3.9,10.1,3.4,12.1c0,0,4.3,0.8,6.7-7.6c0,0,1.4-4.7-2.2-14
		C245.3,235.6,242.3,227.7,238.9,228z"/>
	<path class="st1" d="M232.3,227.8c0,0-2.9,7.5,0.4,17.2c0,0,3.2,10.3-4.1,11.9c0,0-4.4,0.6-6.3-8c0,0-1.1-4.8,3.1-13.8
		C225.4,235,228.9,227.3,232.3,227.8z"/>
</g>
<g>
	<path class="st1" d="M205.4,178c0,0,7.5,2.4,13,11.2c0,0,5.9,9.1,11.8,4.4c0,0,3.2-3-2.2-9.9c0,0-3-3.9-12.6-6.4
		C215.4,177.3,207.2,175.1,205.4,178z"/>
	<path class="st1" d="M201.4,183.3c0,0,4.4,6.8,14.1,9.8c0,0,10.3,3.4,7.2,10.3c0,0-2.1,3.9-10.2,0.4c0,0-4.5-2-9.4-10.6
		C203.2,193.1,199,185.7,201.4,183.3z"/>
</g>
<g>
	<path class="st1" d="M217.2,122.5c0,0,2.4,7.5-1.6,17.1c0,0-4,10.1,3.3,12.2c0,0,4.3,0.9,6.8-7.6c0,0,1.4-4.7-2.1-14
		C223.5,130.2,220.5,122.2,217.2,122.5z"/>
	<path class="st1" d="M210.5,122.2c0,0-3,7.5,0.3,17.2c0,0,3.2,10.4-4.2,11.9c0,0-4.4,0.5-6.2-8.1c0,0-1-4.8,3.2-13.8
		C203.6,129.4,207.2,121.7,210.5,122.2z"/>
</g>
<g>
	<path class="st1" d="M238.8,75.6c0,0-2.8,7.3-11.9,12.4c0,0-9.4,5.4-5,11.6c0,0,2.8,3.4,10-1.7c0,0,4-2.8,7.1-12.3
		C238.9,85.5,241.6,77.5,238.8,75.6z"/>
	<path class="st1" d="M233.7,71.2c0,0-7,4-10.5,13.6c0,0-4,10.1-10.7,6.7c0,0-3.8-2.3,0.2-10.2c0,0,2.2-4.4,11.1-8.8
		C223.9,72.5,231.4,68.7,233.7,71.2z"/>
</g>
<g>
	<path class="st1" d="M291.7,84.1c0,0-7.8,1-16.5-4.6c0,0-9.2-5.7-12.6,1c0,0-1.6,4.1,6.2,8c0,0,4.4,2.2,14.2,0.4
		C283,89,291.4,87.5,291.7,84.1z"/>
	<path class="st1" d="M293.2,77.6c0,0-6.9-4.3-16.9-2.8c0,0-10.8,1.3-10.9-6.3c0,0,0.3-4.4,9-4.6c0,0,4.9-0.1,13,5.6
		C287.3,69.5,294.3,74.4,293.2,77.6z"/>
</g>
<g>
	<path class="st1" d="M344.3,73.2c0,0-3.3,7.1-12.7,11.6c0,0-9.7,4.8-5.8,11.2c0,0,2.6,3.6,10.1-1c0,0,4.2-2.6,7.8-11.8
		C343.8,83.2,347,75.3,344.3,73.2z"/>
	<path class="st1" d="M339.6,68.6c0,0-7.2,3.6-11.3,12.9c0,0-4.6,9.8-11.1,6c0,0-3.6-2.5,0.8-10.1c0,0,2.5-4.3,11.7-8.1
		C329.6,69.2,337.4,65.9,339.6,68.6z"/>
</g>
<g>
	<path class="st1" d="M375.1,31c0,0-0.2,7.9-7,15.7c0,0-7,8.3-0.8,12.6c0,0,3.8,2.2,8.9-5c0,0,2.8-4,2.5-14
		C378.6,40.3,378.4,31.9,375.1,31z"/>
	<path class="st1" d="M368.9,28.7c0,0-5.2,6.2-5.3,16.4c0,0-0.3,10.8-7.8,9.9c0,0-4.3-0.9-3.3-9.6c0,0,0.6-4.9,7.5-12.1
		C360,33.2,365.8,27.1,368.9,28.7z"/>
</g>
<g>
	<path class="st1" d="M423.6,19.1c0,0-7.7,1.7-16.9-3.1c0,0-9.7-4.8-12.4,2.2c0,0-1.2,4.2,6.9,7.4c0,0,4.6,1.8,14.2-0.9
		C415.4,24.7,423.6,22.5,423.6,19.1z"/>
	<path class="st1" d="M424.4,12.5c0,0-7.2-3.6-17.1-1.2c0,0-10.6,2.3-11.5-5.2c0,0-0.2-4.4,8.6-5.5c0,0,4.9-0.6,13.5,4.4
		C417.9,5,425.2,9.2,424.4,12.5z"/>
</g>
<g>
	<path class="st1" d="M449.1,64.2c0,0-3.9-6.8-2.1-17c0,0,1.7-10.7-5.8-11.2c0,0-4.4,0.1-5,8.8c0,0-0.3,4.9,5.1,13.2
		C441.2,58.1,445.8,65.2,449.1,64.2z"/>
	<path class="st1" d="M455.6,63c0,0,1.3-8-3.9-16.7c0,0-5.3-9.4,1.6-12.5c0,0,4.2-1.5,7.8,6.5c0,0,2,4.5-0.2,14.2
		C460.8,54.5,459,62.8,455.6,63z"/>
</g>
<g>
	<path class="st1" d="M505.1,89.4c0,0-7.8-0.4-15.5-7.4c0,0-8.1-7.2-12.6-1.1c0,0-2.3,3.8,4.8,9c0,0,4,2.9,13.9,2.8
		C495.7,92.7,504.1,92.7,505.1,89.4z"/>
	<path class="st1" d="M507.6,83.2c0,0-6-5.4-16.2-5.6c0,0-10.8-0.6-9.7-8c0,0,1-4.3,9.7-3.1c0,0,4.9,0.7,11.9,7.8
		C503.2,74.3,509.2,80.3,507.6,83.2z"/>
</g>
<g>
	<path class="st1" d="M558.1,98.5c0,0-6.9,3.7-17.1,1.6c0,0-10.6-2-11.4,5.5c0,0-0.1,4.4,8.7,5.3c0,0,4.9,0.5,13.4-4.7
		C551.8,106.1,559,101.8,558.1,98.5z"/>
	<path class="st1" d="M557.2,91.9c0,0-7.9-1.5-16.8,3.4c0,0-9.6,5-12.5-1.9c0,0-1.3-4.2,6.8-7.6c0,0,4.6-1.9,14.2,0.6
		C548.8,86.4,557,88.5,557.2,91.9z"/>
</g>
<g>
	<path class="st1" d="M588.9,50.5c0,0-0.7,7.8-8,15.2c0,0-7.5,7.8-1.6,12.5c0,0,3.7,2.5,9.2-4.4c0,0,3.1-3.9,3.4-13.8
		C591.8,60,592.1,51.6,588.9,50.5z"/>
	<path class="st1" d="M582.9,47.8c0,0-5.6,5.8-6.3,16c0,0-1,10.8-8.4,9.4c0,0-4.3-1.2-2.7-9.8c0,0,0.9-4.9,8.2-11.6
		C573.7,51.8,579.9,46,582.9,47.8z"/>
</g>
<g>
	<path class="st1" d="M635.7,26.5c0,0-5.9,5.2-16.2,5.6c0,0-10.8,0.6-9.7,8c0,0,1,4.3,9.7,3.1c0,0,4.9-0.7,11.9-7.7
		C631.3,35.4,637.3,29.5,635.7,26.5z"/>
	<path class="st1" d="M633.2,20.4c0,0-8.1,0.4-15.5,7.3c0,0-8.1,7.2-12.6,1.1c0,0-2.3-3.8,4.8-9c0,0,4-2.9,13.9-2.8
		C623.8,17,632.3,17.1,633.2,20.4z"/>
</g>
<g>
	<path class="st1" d="M678.2,60.9c0,0-7.5-2.2-13.3-10.8c0,0-6.2-8.9-11.9-4c0,0-3.1,3.1,2.5,9.8c0,0,3.2,3.8,12.9,6
		C668.3,61.9,676.5,63.9,678.2,60.9z"/>
	<path class="st1" d="M682.1,55.5c0,0-4.6-6.6-14.4-9.3c0,0-10.4-3.1-7.6-10.1c0,0,2-4,10.1-0.7c0,0,4.6,1.8,9.7,10.3
		C680,45.8,684.4,53,682.1,55.5z"/>
</g>
<g>
	<path class="st1" d="M721.1,86.3c0,0-6.8,3.9-17,2.2c0,0-10.7-1.7-11.2,5.8c0,0,0.1,4.4,8.9,5c0,0,4.9,0.3,13.2-5.1
		C714.9,94.2,722.1,89.6,721.1,86.3z"/>
	<path class="st1" d="M719.9,79.8c0,0-8-1.3-16.7,4c0,0-9.4,5.3-12.5-1.5c0,0-1.5-4.2,6.5-7.8c0,0,4.5-2,14.2,0.1
		C711.4,74.6,719.6,76.4,719.9,79.8z"/>
</g>
</svg>
