<?xml version="1.0" encoding="utf-8"?>
<!-- Generator: Adobe Illustrator 22.0.1, SVG Export Plug-In . SVG Version: 6.00 Build 0)  -->
<svg version="1.1" id="Layer_1" xmlns="http://www.w3.org/2000/svg" xmlns:xlink="http://www.w3.org/1999/xlink" x="0px" y="0px"
	 viewBox="0 0 51.2 50.3" style="enable-background:new 0 0 51.2 50.3;" xml:space="preserve">
<style type="text/css">
	.st0{fill:#fff;}
</style>
<path class="st0" d="M31.5,20.8H20.2c-1.6,0-2.9,1.3-2.9,2.9v2.5c0,1.6,1.3,2.9,2.9,2.9h11.2c1.6,0,2.9-1.3,2.9-2.9v-2.5
	C34.4,22.1,33.1,20.8,31.5,20.8z"/>
<g>
	<path class="st0" d="M25.8-0.5H0.4v19.3c0,1.6,1.3,2.9,2.9,2.9h3.9V6.3h37.3v15.4h3.9c1.6,0,2.9-1.3,2.9-2.9V-0.5H25.8z"/>
	<path class="st0" d="M48.4,26.5h-3.9v17.1H25.8c-8.7,0-16-6-18.1-14.1c-0.7-2.9-7.3-2.9-7.3-2.9c0.8,13.3,11.8,23.8,25.3,23.8h25.4
		V29.4C51.3,27.8,50,26.5,48.4,26.5z"/>
</g>
</svg>
